<?xml version="1.0" encoding="UTF-8"?>
<!DOCTYPE svg PUBLIC "-//W3C//DTD SVG 1.1//EN" "http://www.w3.org/Graphics/SVG/1.1/DTD/svg11.dtd">
<!-- Creator: CorelDRAW 2017 -->
<svg xmlns="http://www.w3.org/2000/svg" xml:space="preserve" width="1063px" height="283px" version="1.1" style="shape-rendering:geometricPrecision; text-rendering:geometricPrecision; image-rendering:optimizeQuality; fill-rule:evenodd; clip-rule:evenodd"
viewBox="0 0 1063 283.47"
 xmlns:xlink="http://www.w3.org/1999/xlink">
 <defs>
  <style type="text/css">
   <![CDATA[
    .fil0 {fill:#006973;fill-rule:nonzero}
    .fil1 {fill:url(#id0)}
   ]]>
  </style>
  <linearGradient id="id0" gradientUnits="userSpaceOnUse" x1="168.1" y1="141" x2="168.1" y2="284.55">
   <stop offset="0" style="stop-opacity:1; stop-color:#76C343"/>
   <stop offset="1" style="stop-opacity:1; stop-color:#007C88"/>
  </linearGradient>
 </defs>
 <g id="Слой_x0020_1">
  <metadata id="CorelCorpID_0Corel-Layer"/>
  <g id="_2541162141296">
   <path class="fil0" d="M358.23 101.07l10.99 0 0 12.6 -10.99 0c-1.83,0 -3.92,0.61 -5.62,1.34l0 20.48 16.61 -0.02 0 12.53 -16.61 0.03 0 22.41c1.7,0.74 3.79,1.35 5.62,1.35l10.99 0 0 12.58 -10.99 0c-1.44,0 -3.8,-0.29 -5.62,-0.75l-0.67 -0.18c-3.97,-1.14 -7.64,-2.85 -10.7,-5.65 -0.33,-0.31 -0.86,-0.85 -0.86,-2.09l0 -66.06c0,-0.24 -0.01,-1.08 0.79,-1.89 4.13,-4.27 11.25,-6.68 17.06,-6.68zm74.43 0l0 12.6 -4.31 0c-2.67,0 -8.93,3.75 -9.74,6.88 -0.48,1.82 -0.79,4.59 -0.83,8.19 -0.04,4.18 9.37,13 12.98,13.8l1.9 0.03 0 12.54 -2.49 0 -14.13 28.51 -13.86 0 16.69 -33.61c-7.27,-5.89 -13.19,-13.97 -13.19,-20.96 0,-4.94 0.16,-8.07 1.09,-11.63 1.2,-4.56 4.32,-8.31 8.16,-11.12 4.34,-3.21 9.76,-5.23 13.42,-5.23l4.31 0zm-63.44 0l2.59 0c3.64,0 9.07,2.02 13.42,5.23 3.86,2.81 6.96,6.56 8.14,11.12 2.09,7.98 1.73,15.37 -3.81,22.59l2.23 2.24c6.28,6.46 6.25,12.33 6.22,15.36 0,8.55 -2.61,14.41 -10.47,21.12 -3.81,3.26 -9.69,5.64 -13.98,5.64l-4.34 0 0 -12.58 4.34 0c1.21,0 3.23,-0.12 5.34,-1.91 4.38,-3.66 6.94,-5.82 6.94,-12.32 0,-1.24 0.03,-3.62 -2.69,-6.42l0.02 -0.02 -3.14 -3.13 -10.81 0.01 0 -12.53 7.59 -0.02c1.78,-1.45 3.15,-2.96 4.07,-4.51 2.18,-3.62 1.56,-6.9 0.67,-10.39 -0.81,-3.13 -7.09,-6.88 -9.74,-6.88l-2.59 0 0 -12.6zm118.52 0l12.24 0 20.59 0 0 12.6 -20.59 0 0 69.95 -12.24 0 0 -69.95 -20.59 0 0 -12.6 20.59 0zm88.49 21.76c-1.2,-3.22 -2.88,-5.38 -4.62,-6.81 -2.24,-1.79 -4.61,-2.42 -6.21,-2.42l-11.8 0c-0.75,0 -1.5,0.09 -2.2,0.28 -0.5,0.15 -0.99,0.35 -1.36,0.59 -2.14,1.44 -5.38,4.2 -8.42,7.34 -2.29,2.38 -4.39,4.89 -5.57,7.02l0 0.01c0,0 -0.07,0.36 -0.15,0.87 -0.19,1.35 -0.25,2.91 -0.25,3.9l0.03 0 0 17.39 -0.03 0c0,0.99 0.06,2.56 0.25,3.92 0.08,0.45 0.12,0.78 0.15,0.87 1.21,2.16 3.31,4.67 5.57,7.03 3.04,3.13 6.28,5.88 8.42,7.34 0.37,0.25 0.86,0.46 1.36,0.61 0.7,0.16 1.45,0.27 2.2,0.27l11.8 0c1.6,0 3.97,-0.64 6.21,-2.44 1.74,-1.41 3.42,-3.6 4.62,-6.8l11.42 4.46c-2.07,5.57 -5.18,9.52 -8.55,12.23 -4.74,3.78 -10,5.13 -13.7,5.13l-11.8 0c-1.73,0 -3.56,-0.22 -5.35,-0.72 -1.72,-0.47 -3.41,-1.22 -4.93,-2.23 -2.7,-1.87 -6.72,-5.23 -10.34,-8.99 -2.94,-3.05 -5.7,-6.41 -7.51,-9.6l0 -0.03c-0.81,-1.51 -1.33,-3.34 -1.59,-5.23 -0.33,-2.1 -0.4,-4.42 -0.4,-5.82l-0.03 0 0 -17.39 0.03 0c0,-1.4 0.07,-3.69 0.4,-5.83 0.28,-1.89 0.78,-3.76 1.59,-5.22l0.02 0c1.8,-3.2 4.56,-6.6 7.49,-9.6 3.62,-3.78 7.64,-7.15 10.34,-8.98 1.52,-1.05 3.21,-1.79 4.93,-2.25 1.79,-0.51 3.62,-0.74 5.35,-0.74l11.8 0c3.7,0 8.96,1.35 13.7,5.13 3.37,2.73 6.48,6.67 8.55,12.24l-11.42 4.47zm57.19 17.42c5.3,3.6 10.75,9.41 13.41,13.56 2.43,3.8 2.77,7.65 2.77,11.84l0 17.19 -12.24 0 0 -17.19c0,-1.62 0.05,-3.78 -0.7,-4.96 -2.24,-3.47 -9.27,-10.78 -13.98,-12.02 -3.62,-0.98 -12.08,-0.78 -15.6,-0.78l0 35.73 -12.23 0 0 -83.26 12.23 0 0 34.98 6.63 0.03c4.67,0 8.87,-0.29 15.94,-8.27 2.72,-3.06 5.25,-6.15 5.25,-9.87l0 -16.87 12.24 0 0 16.87c0,4.91 -0.59,6.4 -2.29,9.29 -1.69,2.99 -4.55,6.66 -7.59,9.92 -1.21,1.28 -2.5,2.58 -3.84,3.81zm39.5 40.65c0.21,-6.62 1.34,-7.93 3.71,-10.62 0.39,-0.44 0.77,-0.86 0.9,-1.02l20.26 -23.46 15.71 -18.22 0 56.04 12.22 0 0 -83.26 -0.03 0 -12.17 0 -0.02 0 0 1.95c-0.19,6.63 -1.32,7.92 -3.7,10.65 -0.39,0.43 -0.74,0.84 -0.89,1.04l-20.26 23.44 -15.73 18.2 0 -55.28 -12.2 0 0 83.26 12.2 0 0 -2.72zm102.35 -95.46c1.36,0 3.36,-0.53 5.27,-2.07 1.51,-1.22 2.94,-3.06 3.95,-5.81l9.72 3.82c-1.75,4.74 -4.4,8.09 -7.29,10.41 -4.03,3.25 -8.51,4.39 -11.65,4.39l-11.15 0c-3.15,0 -7.64,-1.14 -11.66,-4.39 -2.9,-2.32 -5.54,-5.67 -7.28,-10.41l9.72 -3.82c1.01,2.75 2.43,4.59 3.94,5.81 1.92,1.54 3.9,2.07 5.28,2.07l11.15 0zm-25.85 95.46c0.16,-6.62 1.31,-7.93 3.69,-10.62 0.38,-0.44 0.74,-0.86 0.89,-1.02l20.25 -23.46 15.72 -18.22 0 56.04 12.23 0 0 -83.26 -0.03 0 -12.17 0 -0.03 0 0 1.95c-0.16,6.63 -1.3,7.92 -3.68,10.65 -0.4,0.43 -0.77,0.84 -0.91,1.04l-20.26 23.44 -15.7 18.2 0 -55.28 -12.25 0 0 83.26 12.25 0 0 -2.72zm294.38 -58.07c-1.18,-3.22 -2.85,-5.38 -4.61,-6.81 -2.26,-1.79 -4.6,-2.42 -6.21,-2.42l-11.8 0c-0.74,0 -1.49,0.09 -2.19,0.28 -0.51,0.15 -0.97,0.35 -1.35,0.59 -2.13,1.44 -5.41,4.2 -8.42,7.34 -2.31,2.38 -4.41,4.89 -5.6,7.02l0 0.01 -0.11 0.87c-0.23,1.35 -0.28,2.91 -0.28,3.9l0.03 0 0 17.39 -0.03 0c0,0.99 0.05,2.56 0.28,3.92 0.06,0.45 0.09,0.78 0.11,0.87 1.22,2.16 3.31,4.67 5.6,7.03 3.01,3.13 6.29,5.88 8.42,7.34 0.38,0.25 0.84,0.46 1.35,0.61 0.7,0.16 1.45,0.27 2.19,0.27l11.8 0c1.61,0 3.95,-0.64 6.21,-2.44 1.76,-1.41 3.43,-3.6 4.61,-6.8l11.43 4.46c-2.07,5.57 -5.18,9.52 -8.56,12.23 -4.72,3.78 -9.98,5.13 -13.69,5.13l-11.8 0c-1.71,0 -3.56,-0.22 -5.33,-0.72 -1.73,-0.47 -3.41,-1.22 -4.94,-2.23 -2.69,-1.87 -6.7,-5.23 -10.35,-8.99 -2.94,-3.05 -5.72,-6.41 -7.49,-9.6l0 -0.03c-0.84,-1.51 -1.33,-3.34 -1.61,-5.23 -0.33,-2.1 -0.4,-4.42 -0.4,-5.82l-0.03 0 0 -17.39 0.03 0c0,-1.4 0.07,-3.69 0.4,-5.83 0.28,-1.89 0.78,-3.76 1.61,-5.22 1.82,-3.2 4.58,-6.6 7.49,-9.6 3.65,-3.78 7.66,-7.15 10.35,-8.98 1.53,-1.05 3.21,-1.79 4.94,-2.25 1.77,-0.51 3.62,-0.74 5.33,-0.74l11.8 0c3.71,0 8.97,1.35 13.69,5.13 3.38,2.73 6.49,6.67 8.56,12.24l-11.43 4.47zm-133.36 -9.93c-3.17,0 -7.69,-0.04 -10.74,0.79 -1.64,0.41 -5.08,3.22 -8.8,6.7 -6.12,5.72 -12.22,12.62 -13.68,14.94 -0.3,0.42 -0.45,0.99 -0.56,1.59 -0.14,0.9 -0.15,2.1 -0.15,3.36l0 43.34 -12.23 0 0 -43.34c0,-1.75 0.03,-3.5 0.35,-5.43 0.36,-2.18 1.06,-4.33 2.42,-6.41 1.82,-2.89 8.88,-11.02 15.68,-17.33 4.99,-4.66 10.16,-8.58 13.96,-9.59 1.5,-0.41 3.32,-0.67 5.11,-0.84 2.45,-0.25 4.98,-0.32 6.28,-0.32l8.44 0 6.08 0 0.07 83.26 -12.17 0 -0.06 -70.72zm41.31 -12.57l32.07 0 0 12.57 -32.07 0c-1.82,0 -3.89,0.61 -5.62,1.38l0 20.46 35.41 0 0 12.51 -35.41 0.03 0 22.41c1.73,0.75 3.8,1.35 5.62,1.35l32.07 0 0 12.58 -32.07 0c-1.42,0 -3.77,-0.29 -5.62,-0.72l-0.67 -0.19c-3.95,-1.16 -7.64,-2.88 -10.69,-5.66 -0.32,-0.32 -0.87,-0.88 -0.87,-2.1l0 -66.08c0,-0.19 0,-1.06 0.79,-1.86 4.14,-4.29 11.27,-6.68 17.06,-6.68zm-519.09 54.78l0 -12.54 14.89 0.04 0 -27.6c-1.72,-0.73 -3.79,-1.34 -5.62,-1.34l-9.27 0 0 -12.6 9.27 0c5.79,0 12.93,2.41 17.08,6.68 0.78,0.81 0.75,1.65 0.75,1.89l0 73.98 -12.21 0 0 -28.51 -14.89 0z"/>
   <polygon class="fil1" points="112.85,218.14 148.42,156.45 130.92,156.43 166.49,94.73 201.94,156.45 184.12,156.45 219.94,218.14 202.01,218.14 237.83,279.81 326.79,279.81 166.59,2.19 6.32,279.81 95.07,279.81 130.64,218.14 "/>
  </g>
 </g>
</svg>
